<svg width="90" height="55" viewBox="0 0 90 55" fill="none" xmlns="http://www.w3.org/2000/svg">
<path d="M89.8761 2.92138C89.827 2.73633 89.7649 2.55486 89.6904 2.37826C89.6397 2.26334 89.5834 2.14841 89.5234 2.03904C89.4633 1.92782 89.3958 1.82216 89.3263 1.71836C88.9807 1.21149 88.519 0.792159 87.9788 0.494318C87.4386 0.196477 86.8349 0.0284998 86.2167 0.00398731C85.5985 -0.0205252 84.9832 0.0991168 84.4205 0.353225C83.8579 0.607333 83.3637 0.988765 82.978 1.46663C82.5924 1.9445 82.326 2.50538 82.2006 3.10384C82.0752 3.7023 82.0942 4.32153 82.2561 4.91138C82.418 5.50123 82.7183 6.04513 83.1326 6.49903C83.5468 6.95293 84.0635 7.30407 84.6407 7.52402C83.9427 11.0664 79.8782 14.9831 75.8588 17.2316C75.2392 17.5768 74.5899 17.8671 73.9185 18.0991C74.7488 15.6615 75.1987 13.1132 75.2527 10.5418C76.1294 10.2369 76.8689 9.63572 77.3403 8.8444C77.8117 8.05309 77.9848 7.12262 77.8289 6.21744C77.673 5.31227 77.1982 4.49067 76.4884 3.89786C75.7787 3.30505 74.8796 2.97919 73.9501 2.97788C73.0206 2.97657 72.1206 3.29988 71.4091 3.89069C70.6976 4.4815 70.2204 5.30175 70.0619 6.20648C69.9034 7.11121 70.0738 8.04217 70.5429 8.83481C71.012 9.62745 71.7497 10.2307 72.6256 10.5381C72.57 13.3322 71.9864 16.0914 70.9049 18.6738C69.2104 22.7185 66.3619 26.0958 62.8097 27.9884L62.5958 28.1033C60.8694 29.0246 59.9818 29.4973 58.4169 29.6308C58.4844 29.0153 58.6176 28.298 58.8466 27.1691C58.9123 26.8447 59.0455 26.2775 59.2031 25.6213C59.8805 22.7741 60.3271 20.6479 60.5636 19.0445C61.4311 18.7201 62.155 18.1036 62.6076 17.3038C63.0602 16.5039 63.2127 15.5719 63.038 14.6719C62.8634 13.772 62.3728 12.9617 61.6528 12.3839C60.9328 11.8061 60.0295 11.4978 59.102 11.5133C58.1745 11.5288 57.2823 11.8671 56.5824 12.4686C55.8826 13.0701 55.4201 13.8962 55.2763 14.8015C55.1326 15.7068 55.3168 16.6332 55.7965 17.4175C56.2763 18.2018 57.0208 18.7937 57.8989 19.089C57.548 21.2263 56.9232 23.8548 56.6455 25.0263C56.4766 25.7344 56.3433 26.2942 56.2702 26.6593C56.041 27.6831 55.8725 28.7192 55.7654 29.7624C53.8683 29.9885 52.3933 30.6484 51.2806 31.7588C49.2089 33.8274 48.9218 36.9675 48.9106 40.1948C48.9068 40.7824 48.9125 41.3718 48.92 41.9594C48.9256 42.4469 48.9293 42.9326 48.9293 43.4127V50.9089C48.9293 50.9628 48.9256 51.0167 48.9181 51.0702C48.9128 51.1235 48.9028 51.1762 48.8881 51.2277C48.8188 51.5159 48.6419 51.7675 48.3927 51.9321C48.3908 51.934 48.3871 51.9358 48.3852 51.9377C48.3833 51.9377 48.3833 51.9395 48.3814 51.9395C48.3608 51.9525 48.342 51.9655 48.3214 51.9785C48.308 51.9866 48.2942 51.994 48.2801 52.0007C48.1611 52.0708 48.0362 52.1303 47.9067 52.1787C47.8329 52.206 47.7577 52.2295 47.6815 52.2491C47.597 52.2732 47.5107 52.2917 47.4207 52.3084C47.3306 52.327 47.2368 52.3399 47.1392 52.351C47.1291 52.3512 47.119 52.3525 47.1092 52.3548C46.785 52.3878 46.4593 52.4039 46.1334 52.4029V52.4011H46.1278V48.5733C46.1275 48.5275 46.137 48.4822 46.1557 48.4402C46.1744 48.3983 46.2018 48.3607 46.2361 48.33C46.2704 48.2992 46.311 48.2759 46.355 48.2616C46.3991 48.2473 46.4457 48.2424 46.4918 48.247C46.747 48.2711 47.0322 48.3027 47.3625 48.3379C47.3964 48.3418 47.4308 48.3391 47.4636 48.3298C47.4964 48.3206 47.5271 48.305 47.5538 48.284C47.5805 48.2629 47.6027 48.2369 47.6191 48.2073C47.6356 48.1778 47.6459 48.1453 47.6496 48.1117L47.7453 47.2572L47.8429 46.4008C47.8444 46.3923 47.845 46.3835 47.8447 46.3749V46.373C47.8444 46.3569 47.8432 46.3408 47.841 46.3248C47.8338 46.2947 47.8218 46.2659 47.8053 46.2395C47.7972 46.2263 47.7877 46.2139 47.7772 46.2025C47.7674 46.1906 47.756 46.18 47.7434 46.1709C47.7045 46.1421 47.6585 46.1242 47.6102 46.119C46.3661 45.993 45.6661 45.9263 45 45.9244C44.3338 45.9263 43.6339 45.993 42.3898 46.119C42.3253 46.1246 42.2655 46.1545 42.2228 46.2025C42.2122 46.2139 42.2028 46.2263 42.1946 46.2395C42.1782 46.2659 42.1661 46.2947 42.159 46.3248C42.1568 46.3414 42.1555 46.3581 42.1552 46.3749C42.155 46.3835 42.1556 46.3922 42.1571 46.4008L42.2547 47.2572L42.3504 48.1117C42.354 48.1453 42.3644 48.1778 42.3808 48.2073C42.3973 48.2369 42.4195 48.2629 42.4462 48.284C42.4729 48.305 42.5035 48.3206 42.5364 48.3298C42.5692 48.3391 42.6036 48.3418 42.6375 48.3379C42.9678 48.3027 43.253 48.2711 43.5082 48.247C43.5543 48.2424 43.6009 48.2473 43.645 48.2616C43.689 48.2759 43.7295 48.2992 43.7639 48.33C43.7982 48.3607 43.8256 48.3983 43.8443 48.4402C43.8629 48.4822 43.8725 48.5275 43.8722 48.5733V52.4011H43.8666V52.4029C43.5407 52.4039 43.215 52.3878 42.8908 52.3548C42.8807 52.3544 42.8707 52.3532 42.8608 52.351C42.7632 52.3399 42.6694 52.327 42.5793 52.3084C42.4893 52.2917 42.4029 52.2732 42.3185 52.2491C42.2422 52.2295 42.1671 52.206 42.0933 52.1787C41.9635 52.1311 41.8384 52.0715 41.7199 52.0007C41.7057 51.994 41.692 51.9866 41.6786 51.9785C41.658 51.9655 41.6392 51.9525 41.6186 51.9395C41.6148 51.9377 41.611 51.934 41.6073 51.9321C41.3581 51.7675 41.1812 51.5159 41.1119 51.2277C41.0972 51.1762 41.0872 51.1235 41.0819 51.0702C41.0743 51.0161 41.0706 50.9616 41.0706 50.9071V43.4127C41.0706 42.9326 41.0744 42.4469 41.08 41.9594C41.0875 41.3718 41.0931 40.7824 41.0894 40.1948C41.0781 36.9675 40.791 33.8274 38.7194 31.7588C37.6066 30.6484 36.1317 29.9885 34.2346 29.7624C34.1275 28.7192 33.959 27.6831 33.7298 26.6593C33.6566 26.2942 33.5234 25.7362 33.3545 25.0281C33.0768 23.8566 32.4519 21.2263 32.101 19.089C32.9796 18.7937 33.7245 18.2016 34.2046 17.417C34.6846 16.6324 34.869 15.7056 34.7252 14.8C34.5815 13.8943 34.1188 13.0677 33.4187 12.4659C32.7186 11.8641 31.8259 11.5257 30.898 11.5102C29.9701 11.4947 29.0664 11.8032 28.3461 12.3812C27.6258 12.9593 27.1351 13.7699 26.9605 14.6703C26.7858 15.5707 26.9384 16.5031 27.3913 17.3032C27.8442 18.1034 28.5684 18.72 29.4364 19.0445C29.6729 20.6479 30.1195 22.7741 30.7969 25.6213C30.9545 26.2793 31.0877 26.8447 31.1534 27.1691C31.3823 28.298 31.5156 29.0153 31.5831 29.6308C30.0181 29.4973 29.1306 29.0246 27.4042 28.1033L27.1903 27.9884C23.6381 26.0958 20.7896 22.7185 19.0951 18.6738C18.0135 16.0914 17.43 13.3322 17.3744 10.5381C18.2504 10.2307 18.9883 9.62737 19.4576 8.8346C19.9268 8.04183 20.0973 7.1107 19.9388 6.20579C19.7803 5.30089 19.303 4.48047 18.5914 3.88954C17.8797 3.29861 16.9796 2.97523 16.0499 2.97654C15.1202 2.97785 14.221 3.30378 13.5111 3.89671C12.8011 4.48965 12.3263 5.31141 12.1704 6.21676C12.0145 7.12211 12.1876 8.05275 12.6592 8.84419C13.1307 9.63563 13.8703 10.2369 14.7473 10.5418C14.8013 13.1132 15.2512 15.6615 16.0815 18.0991C15.4101 17.8671 14.7608 17.5768 14.1412 17.2316C10.1218 14.9831 6.05729 11.0664 5.35923 7.52402C5.93662 7.30415 6.45346 6.95304 6.86791 6.49913C7.28235 6.04521 7.58274 5.50125 7.74475 4.9113C7.90676 4.32135 7.92583 3.70201 7.80042 3.10342C7.67501 2.50484 7.40865 1.94384 7.0229 1.46588C6.63715 0.987921 6.14286 0.606429 5.58007 0.352303C5.01729 0.0981771 4.40182 -0.0214365 3.78352 0.00315009C3.16523 0.0277366 2.56148 0.195832 2.02119 0.493822C1.48091 0.791811 1.01926 1.21132 0.673651 1.71836C0.604221 1.82216 0.536666 1.92782 0.476619 2.03904C0.416571 2.14841 0.360277 2.26334 0.309612 2.37826C0.235115 2.55487 0.173043 2.73634 0.123839 2.92138C-0.124925 3.87876 0.00398783 4.89374 0.484459 5.76073C0.964929 6.62773 1.76104 7.2819 2.71151 7.59075C3.40206 12.249 8.28467 16.9369 12.8464 19.4894C13.2786 19.731 13.7233 19.95 14.1787 20.1456C14.5446 20.305 14.918 20.4477 15.2971 20.5775C15.5542 20.6646 15.8131 20.7462 16.0758 20.8185C16.4887 20.9352 16.909 21.0353 17.3312 21.1169H17.3331C17.3819 21.2189 17.4344 21.3189 17.4851 21.4209C17.5357 21.521 17.5883 21.6192 17.6408 21.7193C19.6487 25.4915 22.5197 28.4481 25.9443 30.274L26.1563 30.387C28.0797 31.414 29.3351 32.0831 31.6038 32.2351C31.5981 32.3464 31.5925 32.465 31.5869 32.5873C31.57 32.9673 31.5512 33.3918 31.5325 33.8775C31.4668 35.5031 31.3992 37.8239 31.3992 41.4868V42.7584C31.3992 45.322 33.9644 47.0385 36.0266 48.4194C36.6553 48.8402 37.2501 49.2388 37.7117 49.6132C37.8316 49.9909 37.9288 50.3753 38.0026 50.7643C38.0828 51.1797 38.1855 51.5906 38.3103 51.9951C38.4015 52.3005 38.5526 52.5852 38.755 52.833C38.9221 53.0276 39.0891 53.2037 39.2561 53.365C39.3105 53.4188 39.3668 53.4707 39.4212 53.5207C39.7256 53.8009 40.0604 54.0471 40.4195 54.2548C40.5114 54.3085 40.6034 54.3567 40.6972 54.403C40.8254 54.4674 40.9569 54.5249 41.0913 54.5754C41.1363 54.594 41.1813 54.6107 41.2264 54.6255C41.5402 54.7366 41.8637 54.8192 42.1928 54.872C42.2341 54.8794 42.2753 54.8869 42.3166 54.8924C42.3767 54.9017 42.4348 54.9109 42.4949 54.9165C42.6075 54.9313 42.7201 54.9425 42.8345 54.9536C42.9846 54.9666 43.1366 54.9758 43.2886 54.9814C43.3299 54.9832 43.3712 54.9851 43.4106 54.987C43.7146 54.9981 44.0261 54.9999 44.347 54.9999H44.6528L44.9005 54.9981H45.0994L45.3471 54.9999C45.7769 54.9999 46.1897 55.0018 46.5894 54.987C46.6288 54.9851 46.6701 54.9832 46.7113 54.9814C46.8652 54.9758 47.0172 54.9647 47.1655 54.9536C47.2799 54.9425 47.3925 54.9313 47.5051 54.9165C47.5651 54.9091 47.6252 54.9017 47.6834 54.8924C47.7246 54.8869 47.7659 54.8794 47.8072 54.872C48.1363 54.8192 48.4598 54.7366 48.7736 54.6255C48.8186 54.6107 48.8637 54.594 48.9087 54.5754C49.0429 54.5246 49.1744 54.467 49.3028 54.403C49.3966 54.3567 49.4885 54.3085 49.5805 54.2548C49.9396 54.0471 50.2744 53.8009 50.5788 53.5207C50.6332 53.4707 50.6895 53.4188 50.7439 53.365C50.9128 53.2037 51.0779 53.0276 51.2449 52.833C51.4473 52.5852 51.5984 52.3005 51.6897 51.9951C51.8144 51.5906 51.9172 51.1797 51.9974 50.7643C52.0712 50.3753 52.1684 49.9909 52.2883 49.6132C52.7499 49.2388 53.3447 48.8402 53.9733 48.4194C56.0356 47.0385 58.6008 45.322 58.6008 42.7584V41.4868C58.6008 37.8239 58.5332 35.5031 58.4675 33.8775C58.4488 33.3918 58.43 32.9673 58.4131 32.5873C58.4075 32.465 58.4018 32.3464 58.3962 32.2351C60.6649 32.0831 61.9203 31.414 63.8455 30.387L64.0557 30.274C67.4803 28.4481 70.3513 25.4915 72.3591 21.7193C72.4117 21.6192 72.4642 21.521 72.5149 21.4209C72.5656 21.3189 72.6181 21.2189 72.6669 21.1169H72.6688C73.091 21.0353 73.5094 20.9371 73.9241 20.8185C74.1868 20.7462 74.4458 20.6646 74.7029 20.5775C75.0819 20.4477 75.4553 20.305 75.8213 20.1456C76.2763 19.9492 76.721 19.7302 77.1536 19.4894C81.7153 16.9369 86.5979 12.249 87.2885 7.59075C88.239 7.28192 89.0351 6.62775 89.5155 5.76075C89.996 4.89375 90.1249 3.87876 89.8761 2.92138ZM3.94061 5.19026C3.68082 5.19026 3.42686 5.11416 3.21085 4.97159C2.99484 4.82901 2.82648 4.62636 2.72706 4.38926C2.62764 4.15216 2.60163 3.89126 2.65231 3.63956C2.70299 3.38786 2.8281 3.15666 3.0118 2.97519C3.1955 2.79372 3.42955 2.67014 3.68435 2.62007C3.93916 2.57001 4.20326 2.5957 4.44328 2.69391C4.6833 2.79212 4.88845 2.95843 5.03278 3.17182C5.17711 3.3852 5.25415 3.63607 5.25415 3.8927C5.25377 4.23672 5.11526 4.56654 4.869 4.8098C4.62275 5.05306 4.28887 5.18989 3.94061 5.19026ZM16.0552 8.16724C15.7954 8.16724 15.5414 8.09114 15.3254 7.94856C15.1094 7.80598 14.9411 7.60333 14.8416 7.36623C14.7422 7.12914 14.7162 6.86824 14.7669 6.61654C14.8176 6.36483 14.9427 6.13363 15.1264 5.95216C15.3101 5.7707 15.5441 5.64712 15.7989 5.59705C16.0537 5.54698 16.3179 5.57268 16.5579 5.67089C16.7979 5.7691 17.003 5.93541 17.1474 6.14879C17.2917 6.36217 17.3687 6.61304 17.3687 6.86968C17.3684 7.2137 17.2298 7.54352 16.9836 7.78678C16.7373 8.03003 16.4035 8.16686 16.0552 8.16724ZM30.8306 16.7033C30.4824 16.703 30.1485 16.5661 29.9023 16.3229C29.656 16.0796 29.5175 15.7498 29.5171 15.4058C29.5185 15.0621 29.6574 14.7329 29.9034 14.4898C30.1494 14.2468 30.4827 14.1096 30.8306 14.1082C31.179 14.1082 31.5131 14.2449 31.7595 14.4883C32.0058 14.7316 32.1442 15.0616 32.1442 15.4058C32.1442 15.7499 32.0058 16.08 31.7595 16.3233C31.5131 16.5666 31.179 16.7033 30.8306 16.7033ZM35.1503 32.5985C35.7912 32.7836 36.3759 33.1224 36.8523 33.5846C37.4922 34.2223 37.8825 35.1139 38.117 36.1519C38.1602 36.341 38.1977 36.5338 38.2315 36.7321C38.2822 37.0287 38.3216 37.3346 38.3535 37.6497H38.3516C37.4104 37.6246 36.5163 37.2375 35.8596 36.5709C35.7394 36.4499 35.6284 36.3205 35.5275 36.1834C35.4599 36.0926 35.3961 35.9981 35.338 35.9017C35.3079 35.8516 35.2798 35.8034 35.2535 35.7534C35.1991 35.6533 35.1503 35.5495 35.1053 35.4438C34.9159 34.9916 34.8221 34.5059 34.8299 34.0165C34.8376 33.5272 34.9467 33.0446 35.1503 32.5985ZM38.4548 41.9316C38.4492 42.4284 38.4435 42.9233 38.4435 43.4127V46.9106C38.1414 46.6992 37.8262 46.4879 37.5016 46.271C35.9535 45.2349 34.0263 43.9447 34.0263 42.7584V41.4868C34.0263 40.4561 34.0319 39.5311 34.0413 38.7026C34.1126 38.7693 34.1877 38.836 34.2627 38.8991C34.4129 39.0251 34.5686 39.1456 34.73 39.2605C34.892 39.3752 35.0599 39.4816 35.2329 39.5793C35.4036 39.6776 35.5819 39.7684 35.7639 39.8518C36.6067 40.2368 37.5244 40.4354 38.4529 40.4339H38.4661C38.4661 40.9307 38.4604 41.433 38.4548 41.9316ZM51.7685 36.7321C51.8022 36.5338 51.8398 36.341 51.8829 36.1519C52.1175 35.1139 52.5078 34.2241 53.1477 33.5846C53.6241 33.1224 54.2087 32.7836 54.8497 32.5985C55.0533 33.0446 55.1623 33.5272 55.1701 34.0165C55.1778 34.5059 55.0841 34.9916 54.8947 35.4438C54.8497 35.5495 54.8009 35.6533 54.7465 35.7534C54.7202 35.8034 54.692 35.8516 54.662 35.9017C54.6038 35.9981 54.54 36.0926 54.4725 36.1834C54.3715 36.3204 54.2605 36.4499 54.1403 36.5709C53.4842 37.2381 52.5898 37.6253 51.6484 37.6497H51.6465C51.6784 37.3346 51.7178 37.0287 51.7685 36.7321ZM55.9737 42.7584C55.9737 43.9447 54.0465 45.2349 52.4984 46.271C52.1738 46.4879 51.8585 46.6992 51.5564 46.9106V43.4127C51.5564 42.9233 51.5508 42.4284 51.5452 41.9316C51.5395 41.433 51.5339 40.9307 51.5339 40.4339H51.547C52.4755 40.4345 53.393 40.2359 54.236 39.8518C54.4181 39.7684 54.5963 39.6776 54.7671 39.5793C54.9397 39.4792 55.1086 39.3736 55.27 39.2605C55.3507 39.203 55.4314 39.1437 55.5102 39.0844C55.6659 38.9621 55.816 38.836 55.9587 38.7026C55.968 39.533 55.9737 40.4561 55.9737 41.4868V42.7584ZM58.0866 16.1398C57.8924 15.8614 57.816 15.519 57.8737 15.1857C57.9315 14.8524 58.1188 14.5546 58.3957 14.3558C58.6726 14.157 59.0172 14.0729 59.3559 14.1216C59.6947 14.1702 60.0008 14.3477 60.2089 14.6161C60.387 14.8417 60.4835 15.1197 60.4829 15.4058C60.4829 15.6828 60.3932 15.9525 60.2269 16.1755C60.0606 16.3985 59.8264 16.5631 59.5586 16.6451C59.2907 16.7271 59.0034 16.7224 58.7385 16.6314C58.4737 16.5405 58.2452 16.3682 58.0866 16.1398ZM72.6312 6.86968C72.6312 6.61304 72.7083 6.36217 72.8526 6.14879C72.9969 5.93541 73.2021 5.7691 73.4421 5.67089C73.6821 5.57268 73.9462 5.54698 74.201 5.59705C74.4558 5.64712 74.6899 5.7707 74.8736 5.95216C75.0573 6.13363 75.1824 6.36483 75.2331 6.61654C75.2838 6.86824 75.2577 7.12914 75.1583 7.36623C75.0589 7.60333 74.8905 7.80598 74.6745 7.94856C74.4585 8.09114 74.2046 8.16724 73.9448 8.16724C73.5965 8.16686 73.2626 8.03003 73.0164 7.78678C72.7701 7.54352 72.6316 7.2137 72.6312 6.86968ZM86.0594 5.19026C85.7996 5.19026 85.5456 5.11416 85.3296 4.97159C85.1136 4.82901 84.9452 4.62636 84.8458 4.38926C84.7464 4.15216 84.7204 3.89126 84.7711 3.63956C84.8218 3.38786 84.9468 3.15666 85.1305 2.97519C85.3142 2.79372 85.5483 2.67014 85.8031 2.62007C86.0579 2.57001 86.322 2.5957 86.562 2.69391C86.802 2.79212 87.0072 2.95843 87.1515 3.17182C87.2959 3.3852 87.3729 3.63607 87.3729 3.8927C87.3725 4.23672 87.234 4.56655 86.9878 4.8098C86.7415 5.05306 86.4076 5.18989 86.0594 5.19026Z" fill="white"/>
<path d="M55.7065 25.7984C55.6408 26.082 55.5883 26.3211 55.5489 26.5121C55.5095 26.7086 55.4719 26.8939 55.4382 27.07C55.4231 27.1423 55.4081 27.2146 55.395 27.2832C55.3181 27.6854 55.2561 28.0339 55.2036 28.3472C48.7391 27.1757 42.0532 27.1924 34.8325 28.3917C34.7799 28.0673 34.7143 27.7058 34.6336 27.2832C34.6223 27.2276 34.6111 27.172 34.5998 27.1145C34.5641 26.9254 34.5229 26.7271 34.4797 26.5139C34.444 26.3323 34.3915 26.1043 34.3333 25.8429C41.8956 24.5788 48.9099 24.5657 55.7065 25.7984Z" fill="white"/>
</svg>
