<svg width="1080" height="1080" viewBox="0 0 1080 1080" fill="none" xmlns="http://www.w3.org/2000/svg">
<g clip-path="url(#clip0_1_2)">
<path d="M1078.51 245.488C1077.92 243.24 1077.18 241.036 1076.28 238.891C1075.68 237.494 1075 236.098 1074.28 234.77C1073.56 233.419 1072.75 232.135 1071.92 230.874C1067.77 224.717 1062.23 219.623 1055.75 216.005C1049.26 212.387 1042.02 210.346 1034.6 210.048C1027.18 209.751 1019.8 211.204 1013.05 214.291C1006.29 217.378 1000.36 222.011 995.736 227.816C991.108 233.621 987.912 240.435 986.407 247.705C984.902 254.975 985.131 262.497 987.073 269.662C989.016 276.828 992.619 283.435 997.591 288.949C1002.56 294.463 1008.76 298.728 1015.69 301.4C1007.31 344.432 958.539 392.012 910.306 419.326C902.87 423.518 895.079 427.045 887.022 429.864C896.985 400.252 902.384 369.296 903.032 338.059C913.553 334.356 922.427 327.052 928.084 317.44C933.741 307.827 935.818 296.524 933.947 285.528C932.077 274.532 926.379 264.552 917.862 257.35C909.344 250.149 898.555 246.191 887.401 246.175C876.247 246.159 865.447 250.086 856.909 257.263C848.371 264.44 842.645 274.404 840.743 285.395C838.841 296.385 840.885 307.694 846.515 317.323C852.144 326.952 860.997 334.281 871.507 338.014C870.84 371.956 863.837 405.475 850.859 436.845C830.525 485.979 796.343 527.006 753.717 549.997L751.15 551.393C730.433 562.584 719.782 568.326 701.002 569.948C701.813 562.472 703.412 553.757 706.159 540.044C706.947 536.103 708.546 529.213 710.437 521.242C718.566 486.654 723.926 460.826 726.763 441.348C737.173 437.407 745.859 429.919 751.291 420.202C756.723 410.485 758.552 399.164 756.456 388.231C754.36 377.299 748.474 367.456 739.834 360.437C731.194 353.418 720.354 349.673 709.224 349.861C698.094 350.049 687.387 354.158 678.989 361.465C670.591 368.772 665.041 378.808 663.316 389.805C661.591 400.803 663.801 412.056 669.558 421.583C675.315 431.111 684.25 438.302 694.787 441.889C690.577 467.852 683.078 499.782 679.746 514.013C677.719 522.615 676.12 529.416 675.242 533.852C672.492 546.288 670.47 558.874 669.185 571.546C646.419 574.294 628.72 582.31 615.367 595.798C590.507 620.928 587.062 659.073 586.927 698.277C586.882 705.415 586.95 712.576 587.04 719.714C587.107 725.636 587.152 731.536 587.152 737.368V828.43C587.152 829.085 587.107 829.74 587.017 830.389C586.954 831.036 586.833 831.677 586.657 832.303C585.826 835.803 583.702 838.86 580.712 840.86C580.69 840.882 580.645 840.905 580.622 840.927C580.6 840.927 580.6 840.95 580.577 840.95C580.329 841.107 580.104 841.265 579.856 841.423C579.696 841.521 579.531 841.611 579.361 841.693C577.934 842.544 576.434 843.267 574.88 843.854C573.995 844.187 573.093 844.472 572.178 844.71C571.165 845.003 570.129 845.228 569.048 845.431C567.967 845.656 566.841 845.813 565.67 845.949C565.549 845.951 565.428 845.966 565.31 845.994C561.42 846.395 557.511 846.59 553.601 846.579V846.557H553.533V800.057C553.53 799.501 553.645 798.95 553.869 798.441C554.093 797.932 554.421 797.475 554.833 797.101C555.245 796.727 555.732 796.445 556.26 796.271C556.789 796.098 557.348 796.037 557.902 796.094C560.964 796.387 564.387 796.77 568.35 797.198C568.757 797.246 569.169 797.212 569.563 797.1C569.957 796.987 570.325 796.798 570.646 796.543C570.966 796.287 571.232 795.971 571.43 795.612C571.627 795.252 571.751 794.858 571.795 794.45L572.944 784.07L574.114 773.667C574.133 773.562 574.141 773.457 574.137 773.351V773.329C574.133 773.133 574.118 772.937 574.092 772.743C574.006 772.377 573.862 772.027 573.664 771.707C573.566 771.547 573.453 771.396 573.326 771.257C573.208 771.112 573.072 770.984 572.921 770.874C572.454 770.524 571.902 770.306 571.322 770.244C556.393 768.713 547.994 767.902 540 767.879C532.006 767.902 523.607 768.713 508.678 770.244C507.904 770.311 507.186 770.674 506.673 771.257C506.547 771.396 506.434 771.547 506.336 771.707C506.138 772.027 505.994 772.377 505.908 772.743C505.882 772.945 505.867 773.148 505.863 773.351C505.86 773.457 505.868 773.562 505.885 773.667L507.056 784.07L508.205 794.45C508.249 794.858 508.373 795.252 508.57 795.612C508.767 795.971 509.034 796.287 509.354 796.543C509.675 796.798 510.043 796.988 510.437 797.1C510.831 797.212 511.243 797.246 511.65 797.198C515.613 796.77 519.036 796.387 522.098 796.094C522.652 796.037 523.211 796.098 523.74 796.271C524.268 796.445 524.754 796.727 525.167 797.101C525.579 797.475 525.907 797.932 526.131 798.441C526.355 798.95 526.47 799.501 526.467 800.057V846.557H526.399V846.579C522.488 846.59 518.58 846.395 514.69 845.994C514.569 845.99 514.448 845.975 514.33 845.949C513.159 845.813 512.033 845.656 510.952 845.431C509.871 845.228 508.835 845.003 507.822 844.71C506.907 844.473 506.005 844.187 505.12 843.854C503.562 843.276 502.061 842.553 500.639 841.693C500.469 841.611 500.304 841.521 500.143 841.423C499.896 841.265 499.671 841.107 499.423 840.95C499.378 840.927 499.333 840.882 499.288 840.86C496.297 838.86 494.174 835.803 493.343 832.303C493.167 831.677 493.046 831.036 492.983 830.389C492.892 829.732 492.847 829.07 492.848 828.407V737.368C492.848 731.536 492.893 725.636 492.96 719.714C493.05 712.576 493.118 705.415 493.073 698.277C492.938 659.073 489.492 620.928 464.633 595.798C451.28 582.31 433.581 574.294 410.815 571.546C409.53 558.874 407.508 546.288 404.758 533.852C403.88 529.416 402.281 522.638 400.254 514.036C396.922 499.805 389.423 467.852 385.212 441.889C395.755 438.301 404.694 431.109 410.455 421.578C416.215 412.047 418.428 400.789 416.703 389.786C414.977 378.784 409.425 368.744 401.024 361.433C392.623 354.123 381.911 350.011 370.776 349.823C359.641 349.635 348.797 353.382 340.153 360.404C331.51 367.427 325.621 377.274 323.525 388.212C321.429 399.149 323.26 410.476 328.695 420.196C334.131 429.916 342.821 437.407 353.237 441.348C356.074 460.826 361.434 486.654 369.562 521.242C371.454 529.235 373.053 536.103 373.841 540.044C376.588 553.757 378.187 562.472 378.997 569.948C360.218 568.326 349.567 562.584 328.85 551.393L326.283 549.997C283.657 527.006 249.475 485.979 229.141 436.845C216.163 405.475 209.159 371.956 208.492 338.014C219.005 334.281 227.86 326.951 233.491 317.321C239.122 307.69 241.167 296.379 239.265 285.387C237.363 274.394 231.636 264.428 223.097 257.249C214.557 250.071 203.755 246.142 192.599 246.158C181.443 246.174 170.652 250.134 162.133 257.336C153.614 264.539 147.915 274.522 146.045 285.52C144.174 296.518 146.252 307.823 151.91 317.437C157.569 327.051 166.444 334.356 176.967 338.059C177.616 369.296 183.014 400.252 192.978 429.864C184.921 427.045 177.129 423.519 169.694 419.326C121.461 392.012 72.6875 344.432 64.3108 301.4C71.2394 298.729 77.4416 294.464 82.4149 288.95C87.3882 283.436 90.9929 276.828 92.937 269.661C94.8812 262.495 95.11 254.971 93.6051 247.7C92.1002 240.428 88.9038 233.613 84.2748 227.807C79.6458 222.001 73.7144 217.367 66.9609 214.28C60.2074 211.193 52.8218 209.74 45.4023 210.038C37.9827 210.337 30.7378 212.379 24.2543 215.999C17.7709 219.619 12.2311 224.715 8.08381 230.874C7.25065 232.135 6.44 233.419 5.71943 234.77C4.99886 236.098 4.32332 237.494 3.71534 238.891C2.82139 241.036 2.07652 243.24 1.48607 245.488C-1.4991 257.118 0.0478539 269.448 5.8135 279.98C11.5792 290.512 21.1324 298.459 32.5382 302.211C40.8247 358.798 99.4161 415.746 154.157 446.753C159.343 449.687 164.68 452.348 170.145 454.724C174.536 456.661 179.017 458.394 183.565 459.971C186.65 461.029 189.758 462.02 192.91 462.898C197.864 464.317 202.908 465.533 207.975 466.523H207.997C208.583 467.762 209.213 468.978 209.821 470.216C210.429 471.432 211.059 472.626 211.69 473.842C235.784 519.665 270.236 555.581 311.331 577.761L313.876 579.135C336.957 591.61 352.021 599.739 379.245 601.585C379.178 602.936 379.11 604.377 379.042 605.864C378.84 610.48 378.615 615.636 378.389 621.536C377.601 641.284 376.791 669.477 376.791 713.972V729.419C376.791 760.561 407.573 781.413 432.32 798.188C439.863 803.3 447.001 808.141 452.541 812.69C453.98 817.278 455.145 821.947 456.031 826.673C456.994 831.72 458.227 836.711 459.724 841.625C460.818 845.335 462.632 848.793 465.061 851.803C467.065 854.168 469.069 856.307 471.073 858.266C471.726 858.919 472.401 859.549 473.054 860.157C476.707 863.561 480.725 866.552 485.034 869.074C486.137 869.727 487.241 870.313 488.367 870.876C489.905 871.657 491.483 872.356 493.095 872.97C493.636 873.195 494.176 873.398 494.717 873.578C498.483 874.928 502.364 875.931 506.313 876.573C506.809 876.663 507.304 876.753 507.799 876.821C508.52 876.933 509.218 877.046 509.939 877.113C511.29 877.293 512.641 877.429 514.014 877.564C515.816 877.721 517.64 877.834 519.464 877.901C519.959 877.924 520.454 877.946 520.927 877.969C524.575 878.104 528.313 878.127 532.164 878.127H535.834L538.806 878.104H541.193L544.166 878.127C549.322 878.127 554.276 878.149 559.073 877.969C559.545 877.946 560.041 877.924 560.536 877.901C562.383 877.834 564.207 877.699 565.986 877.564C567.359 877.429 568.71 877.293 570.061 877.113C570.782 877.023 571.502 876.933 572.2 876.821C572.696 876.753 573.191 876.663 573.687 876.573C577.635 875.931 581.517 874.928 585.283 873.578C585.824 873.398 586.364 873.195 586.905 872.97C588.515 872.352 590.093 871.653 591.633 870.876C592.759 870.313 593.863 869.727 594.966 869.074C599.275 866.552 603.293 863.561 606.945 860.157C607.598 859.549 608.274 858.919 608.927 858.266C610.954 856.307 612.935 854.168 614.939 851.803C617.368 848.793 619.182 845.335 620.276 841.625C621.773 836.711 623.006 831.72 623.969 826.673C624.855 821.947 626.02 817.278 627.459 812.69C632.999 808.141 640.137 803.3 647.68 798.188C672.427 781.413 703.209 760.561 703.209 729.419V713.972C703.209 669.477 702.398 641.284 701.61 621.536C701.385 615.636 701.16 610.48 700.957 605.864C700.89 604.377 700.822 602.936 700.755 601.585C727.979 599.739 743.043 591.61 766.146 579.135L768.668 577.761C809.763 555.581 844.216 519.665 868.31 473.842C868.94 472.626 869.571 471.432 870.179 470.216C870.787 468.978 871.417 467.762 872.003 466.523H872.025C877.092 465.533 882.113 464.339 887.09 462.898C890.242 462.02 893.35 461.029 896.435 459.971C900.983 458.394 905.464 456.661 909.855 454.724C915.316 452.339 920.652 449.678 925.843 446.753C980.584 415.746 1039.18 358.798 1047.46 302.211C1058.87 298.459 1068.42 290.512 1074.19 279.98C1079.95 269.448 1081.5 257.118 1078.51 245.488ZM47.2873 273.05C44.1698 273.05 41.1223 272.126 38.5302 270.394C35.9381 268.662 33.9177 266.2 32.7247 263.32C31.5317 260.439 31.2195 257.27 31.8277 254.213C32.4359 251.155 33.9372 248.346 36.1416 246.142C38.346 243.937 41.1546 242.436 44.2122 241.828C47.2699 241.22 50.4391 241.532 53.3194 242.725C56.1996 243.918 58.6614 245.938 60.3934 248.53C62.1254 251.123 63.0498 254.17 63.0498 257.288C63.0452 261.467 61.3831 265.473 58.428 268.428C55.473 271.383 51.4664 273.046 47.2873 273.05ZM192.662 309.214C189.545 309.214 186.497 308.289 183.905 306.557C181.313 304.825 179.293 302.364 178.1 299.483C176.907 296.603 176.595 293.434 177.203 290.376C177.811 287.319 179.312 284.51 181.517 282.306C183.721 280.101 186.53 278.6 189.587 277.992C192.645 277.383 195.814 277.696 198.694 278.889C201.575 280.082 204.036 282.102 205.768 284.694C207.5 287.286 208.425 290.334 208.425 293.451C208.42 297.63 206.758 301.637 203.803 304.592C200.848 307.547 196.841 309.209 192.662 309.214ZM369.968 412.908C365.789 412.904 361.782 411.242 358.827 408.287C355.872 405.332 354.21 401.325 354.205 397.146C354.222 392.971 355.889 388.971 358.841 386.019C361.793 383.067 365.793 381.4 369.968 381.383C374.148 381.383 378.158 383.044 381.114 386C384.07 388.956 385.73 392.965 385.73 397.146C385.73 401.326 384.07 405.336 381.114 408.292C378.158 411.248 374.148 412.908 369.968 412.908ZM421.804 605.999C429.495 608.248 436.511 612.363 442.227 617.978C449.906 625.724 454.59 636.555 457.405 649.165C457.922 651.462 458.373 653.804 458.778 656.214C459.386 659.816 459.859 663.532 460.242 667.36H460.219C448.925 667.055 438.195 662.352 430.316 654.254C428.873 652.786 427.541 651.213 426.33 649.548C425.519 648.445 424.754 647.296 424.056 646.125C423.695 645.518 423.358 644.932 423.042 644.324C422.389 643.108 421.804 641.847 421.263 640.564C418.99 635.07 417.866 629.17 417.959 623.225C418.052 617.281 419.36 611.418 421.804 605.999ZM461.458 719.376C461.39 725.411 461.323 731.423 461.323 737.368V779.859C457.697 777.292 453.914 774.725 450.019 772.09C431.441 759.503 408.316 743.83 408.316 729.419V713.972C408.316 701.452 408.383 690.215 408.496 680.15C409.352 680.961 410.252 681.771 411.153 682.537C412.954 684.068 414.823 685.532 416.76 686.928C418.704 688.32 420.719 689.613 422.795 690.801C424.844 691.994 426.983 693.098 429.167 694.111C439.281 698.787 450.293 701.2 461.435 701.182H461.593C461.593 707.216 461.525 713.319 461.458 719.376ZM621.222 656.214C621.627 653.804 622.077 651.462 622.595 649.165C625.41 636.555 630.094 625.747 637.772 617.978C643.489 612.363 650.505 608.248 658.196 605.999C660.64 611.418 661.948 617.281 662.041 623.225C662.134 629.17 661.01 635.07 658.736 640.564C658.196 641.847 657.611 643.108 656.958 644.324C656.642 644.932 656.305 645.518 655.944 646.125C655.246 647.296 654.481 648.445 653.67 649.548C652.459 651.213 651.126 652.786 649.684 654.254C641.81 662.36 631.077 667.064 619.781 667.36H619.758C620.141 663.532 620.614 659.816 621.222 656.214ZM671.684 729.419C671.684 743.83 648.558 759.503 629.981 772.09C626.086 774.725 622.303 777.292 618.677 779.859V737.368C618.677 731.423 618.61 725.411 618.542 719.376C618.475 713.319 618.407 707.216 618.407 701.182H618.565C629.706 701.189 640.716 698.777 650.833 694.111C653.017 693.098 655.156 691.994 657.205 690.801C659.277 689.585 661.303 688.301 663.24 686.928C664.208 686.23 665.177 685.509 666.122 684.789C667.991 683.302 669.793 681.771 671.504 680.15C671.617 690.238 671.684 701.452 671.684 713.972V729.419ZM697.039 406.063C694.709 402.68 693.792 398.521 694.485 394.472C695.178 390.423 697.425 386.806 700.748 384.391C704.071 381.976 708.206 380.955 712.271 381.545C716.336 382.136 720.009 384.292 722.507 387.553C724.644 390.293 725.802 393.671 725.795 397.146C725.795 400.511 724.719 403.787 722.723 406.496C720.727 409.205 717.917 411.204 714.703 412.201C711.489 413.198 708.041 413.139 704.862 412.035C701.684 410.93 698.943 408.838 697.039 406.063ZM871.575 293.451C871.575 290.334 872.499 287.286 874.231 284.694C875.963 282.102 878.425 280.082 881.305 278.889C884.186 277.696 887.355 277.383 890.412 277.992C893.47 278.6 896.279 280.101 898.483 282.306C900.688 284.51 902.189 287.319 902.797 290.376C903.405 293.434 903.093 296.603 901.9 299.483C900.707 302.364 898.687 304.825 896.095 306.557C893.502 308.289 890.455 309.214 887.337 309.214C883.158 309.209 879.152 307.547 876.197 304.592C873.242 301.637 871.579 297.63 871.575 293.451ZM1032.71 273.05C1029.59 273.05 1026.55 272.126 1023.96 270.394C1021.36 268.662 1019.34 266.2 1018.15 263.32C1016.96 260.439 1016.64 257.27 1017.25 254.213C1017.86 251.155 1019.36 248.346 1021.57 246.142C1023.77 243.937 1026.58 242.436 1029.64 241.828C1032.69 241.22 1035.86 241.532 1038.74 242.725C1041.62 243.918 1044.09 245.938 1045.82 248.53C1047.55 251.123 1048.47 254.17 1048.47 257.288C1048.47 261.467 1046.81 265.473 1043.85 268.428C1040.9 271.383 1036.89 273.046 1032.71 273.05Z" fill="url(#paint0_linear_1_2)"/>
<path d="M668.478 523.393C667.69 526.838 667.059 529.743 666.587 532.063C666.114 534.449 665.663 536.701 665.258 538.84C665.078 539.719 664.898 540.597 664.74 541.43C663.817 546.316 663.074 550.55 662.443 554.355C584.869 540.124 504.638 540.327 417.99 554.896C417.359 550.955 416.571 546.564 415.603 541.43C415.468 540.754 415.333 540.079 415.198 539.381C414.77 537.084 414.274 534.675 413.756 532.085C413.329 529.878 412.698 527.109 412 523.934C502.747 508.577 586.919 508.419 668.478 523.393Z" fill="url(#paint1_linear_1_2)"/>
</g>
<defs>
<linearGradient id="paint0_linear_1_2" x1="343" y1="210" x2="895" y2="878" gradientUnits="userSpaceOnUse">
<stop stop-color="#DF7D7D"/>
<stop offset="0.432292" stop-color="#B487EE"/>
<stop offset="1" stop-color="#5EA7D5"/>
</linearGradient>
<linearGradient id="paint1_linear_1_2" x1="343" y1="210" x2="895" y2="878" gradientUnits="userSpaceOnUse">
<stop stop-color="#DF7D7D"/>
<stop offset="0.432292" stop-color="#B487EE"/>
<stop offset="1" stop-color="#5EA7D5"/>
</linearGradient>
<clipPath id="clip0_1_2">
<rect width="1080" height="1080" fill="white"/>
</clipPath>
</defs>
</svg>
